<svg xmlns="http://www.w3.org/2000/svg" xmlns:xlink="http://www.w3.org/1999/xlink" viewBox="0 0 592.87 506.17"><defs><style>.a{fill:none;}.b{clip-path:url(#a);}.c{fill:#fff;}</style><clipPath id="a" transform="translate(0 0)"><rect class="a" width="592.87" height="506.19"/></clipPath></defs><g class="b"><path class="c" d="M0,480c7.26.05,14.52.05,21.75.24,3,.08,3.75-1.27,3.73-4.1-.14-9.55.05-19.11-.14-28.66-.05-3.29.78-4.51,4.21-4.43,9.15.25,18.3-.13,27.45.19,3.88.11,4.8-1.27,4.64-5-.27-5.8,0-11.66-.11-17.49-.08-2.67.67-3.91,3.43-3.7,2.21.19,4.42.06,6.64.06q226.49,0,453,0c7.77,0,6.64-1,6.72,7,.05,4.69.29,9.41-.08,14.08-.33,4.27,1.35,5.1,5.12,5,9-.24,18,.06,27-.16,3.38-.08,4.29,1.11,4.21,4.43-.19,9.39.06,18.78-.13,28.17-.06,3.27.73,4.73,4.21,4.62,7.07-.27,14.19-.22,21.29-.27v26.23c-2-.06-4.1-.22-6.15-.22H6.13c-2,0-4.08.16-6.13.22Z" transform="translate(0 0)"/><path class="c" d="M296.41,126.21H43.57c-6.29,0-6.34,0-6.29-6.58.11-11.26-1.3-8.59,8.31-12.71q65.63-28.22,131.24-56.51Q234.15,25.75,291.52,1.13a11.34,11.34,0,0,1,9.85,0q53.55,23.24,107.25,46.15,59.75,25.65,119.55,51.24c8,3.43,16,6.94,24,10.26,2.59,1.08,3.45,2.7,3.48,5.53.13,11.9.22,11.9-11.15,11.9Z" transform="translate(0 0)"/><path class="c" d="M380.68,294.71c1.21,34.79,2.35,69.57,3.72,104.36.19,4.4-1,5.4-5.15,5.34q-26.28-.36-52.57,0c-4,.06-4.94-1.13-4.83-5.15q2.55-87.4,4.78-174.8c.37-14.41.8-28.82,1-43.23,0-3.26,1-4.07,4-4q20.61.21,41.19,0c3.34,0,4.21,1.1,4.31,4.42q1.78,56.6,3.81,113.13h-.27" transform="translate(0 0)"/><path class="c" d="M270.9,364.46c0,11.65-.13,23.31.08,35,.09,3.62-.54,5.05-4.48,5q-26.75-.32-53.51,0c-4,.05-4.64-1.35-4.51-5Q210.88,331.68,213,264c.91-27.53,1.89-55,2.7-82.56.1-3,.83-4.26,4-4.23,13.41.13,26.82.21,40.23,0,4.16-.08,4.08,2.35,4.16,5.24Q265.54,230.71,267,279c.89,28.47,1.91,57,2.86,85.44Z" transform="translate(0 0)"/><path class="c" d="M98.56,321.42q1.91-69.87,3.78-139.76c.08-3.24.86-4.56,4.26-4.51,13.25.16,26.5.19,39.75,0,3.65-.05,4.35,1.19,4.43,4.67q1.29,49.28,2.91,98.53,1.88,59.46,3.92,118.88c.16,3.88-.6,5.26-4.7,5.21-17-.25-34.08-.22-51.11,0-4.08,0-5.37-.87-5.24-5.32.89-25.88,1.46-51.79,2.11-77.67h-.11" transform="translate(0 0)"/><path class="c" d="M437.07,325.3c1.24-44.44,2.64-93.8,3.91-143.19.08-3.61.84-5,4.72-5,12.95.24,25.88.18,38.84,0,3.67-.06,4.83,1,4.91,4.88q.93,38.37,2.21,76.72,2.19,69.44,4.45,138.88c.22,7.42,1.11,6.64-6.47,6.66-16.41,0-32.85-.19-49.26.14-4.56.08-5.34-1.43-5.18-5.72.73-22.81,1.19-45.64,1.87-73.41" transform="translate(0 0)"/><path class="c" d="M296.43,138.9q101.81,0,203.61-.11c4.67,0,6.56,1,6,6.07a76,76,0,0,0,0,13.58c.33,4.24-1.29,5.05-5.07,5-38.83-.14-77.67-.08-116.5-.08q-145.6,0-291.22,0c-7.31,0-6.28.81-6.36-6.37-.06-4.53.21-9.09-.09-13.6-.27-3.72,1.11-4.59,4.57-4.56,21.64.16,43.25.08,64.87.08H296.43" transform="translate(0 0)"/></g></svg>