<svg id="Long_Outlines" data-name="Long Outlines" xmlns="http://www.w3.org/2000/svg" viewBox="0 0 751.26 71.91"><defs><style>.cls-1,.cls-3,.cls-4{fill:#231f20;}.cls-2{fill:#1a76b9;}.cls-3,.cls-4{stroke:#231f20;stroke-miterlimit:10;}.cls-3{stroke-width:0.75px;}.cls-4{stroke-width:2.5px;}</style></defs><path class="cls-1" d="M269.77,217.46H239.38l-12.26,17.37h42c13.58,0,18.87,4.26,18.87,16.83,0,15.84-6.22,18.1-20.94,18.1-20.66,0-26.71-4.41-24.45-25.83H223.75a32.13,32.13,0,0,0-.87,7.69c0,20.8,7.82,34.25,43.89,34.25,32.41,0,38.44-12.72,38.44-33.25C305.21,227,292.16,217.46,269.77,217.46Z" transform="translate(-37.59 -215.28)"/><path class="cls-2" d="M356,223.1c.48-.75,1.45-.53,1.45.35v26.63a.75.75,0,1,1-1.5,0V225.83l-11.35,17.82a.85.85,0,0,1-1.54,0L331.7,225.92v24.16a.75.75,0,1,1-1.5,0V223.45a.73.73,0,0,1,1.41-.35l12.23,19.05Z" transform="translate(-37.59 -215.28)"/><path class="cls-2" d="M362.63,229.26a.79.79,0,0,1,1.49-.53l10,19.76,9.77-19.76c.44-1.1,2-.44,1.5.53l-14.92,29.49c-.57,1.18-1.8.61-1.41-.49l4.09-8.27Z" transform="translate(-37.59 -215.28)"/><path class="cls-2" d="M402.54,251.22a14.1,14.1,0,0,1-13.82-14.65c.22-6.74,4.84-13,11.66-14.13,4.36-.66,9.59.62,12.59,3.92a.73.73,0,1,1-1.06,1c-2.68-3-7.39-4.09-11.31-3.48-6.12,1-10.25,6.69-10.47,12.72a12.8,12.8,0,0,0,12.45,13.16,12.15,12.15,0,0,0,10.08-4.84v-7.35h-9.37a.66.66,0,0,1,0-1.32h9.9c.61,0,.79.35.79.83v7.84a1.37,1.37,0,0,1-.31,1A13.91,13.91,0,0,1,402.54,251.22Z" transform="translate(-37.59 -215.28)"/><path class="cls-2" d="M422.64,247.17a11.69,11.69,0,0,1-2.64-8.4c.4-4.71,3.3-9,8.06-10.35a13.68,13.68,0,0,1,6.64,0,11.47,11.47,0,0,1,8.1,10.35,11.69,11.69,0,0,1-2.64,8.4,11.75,11.75,0,0,1-17.52,0Zm5.94-17.25c-6.82,1.81-9.19,10.91-4.7,16.28a9.74,9.74,0,0,0,7.52,3.39A9.87,9.87,0,0,0,439,246.2c4.49-5.37,2-14.47-4.79-16.28A11.7,11.7,0,0,0,428.58,229.92Z" transform="translate(-37.59 -215.28)"/><path class="cls-2" d="M445.61,229.13c-.4-.93,1.06-1.54,1.5-.53l10,19.8,9.9-19.67c.35-.92,1.76-.57,1.27.53l-10.51,21.26a.72.72,0,0,1-1.28,0Z" transform="translate(-37.59 -215.28)"/><path class="cls-2" d="M494.45,239.51a1.23,1.23,0,0,1-1.36,1.46h-19.8a9.6,9.6,0,0,0,2.24,5.23,9.88,9.88,0,0,0,7.48,3.39,11.06,11.06,0,0,0,6.91-2.24c.79-.62,1.85.26,1,1.1a12.31,12.31,0,0,1-16.63-1.28,12.09,12.09,0,0,1-2.64-8.4,11.14,11.14,0,0,1,8-10.35,13.72,13.72,0,0,1,6.65,0C491.29,229.74,494.37,233.84,494.45,239.51Zm-21.21,0H493c-.09-4.84-2.69-8.49-7.09-9.68a11.54,11.54,0,0,0-5.63,0C475.84,231.06,473.29,235.11,473.24,239.51Z" transform="translate(-37.59 -215.28)"/><path class="cls-2" d="M502.15,233.93a8.21,8.21,0,0,1,8-5.64.75.75,0,1,1,0,1.5c-5.64,0-8,4.8-8,10.12v10.17a.75.75,0,0,1-.75.79.74.74,0,0,1-.79-.79V229a.75.75,0,0,1,.79-.75.77.77,0,0,1,.75.75Z" transform="translate(-37.59 -215.28)"/><path class="cls-2" d="M535.42,237.71a8.26,8.26,0,0,0-10.52-8,10.57,10.57,0,0,0-7.7,10V250.3a.71.71,0,0,1-.75.79.74.74,0,0,1-.79-.79V229a.75.75,0,0,1,.79-.75.71.71,0,0,1,.75.79v6.08a10,10,0,0,1,7.22-6.87c5.85-1.49,12.54,2,12.54,9.42V250.3a.71.71,0,0,1-.75.79.74.74,0,0,1-.79-.79Z" transform="translate(-37.59 -215.28)"/><path class="cls-2" d="M583.82,237.71c-.09-5.41-5.24-9-10.65-7.61a10.33,10.33,0,0,0-7.57,10V250.3a.79.79,0,0,1-1.58,0V238.5a8.6,8.6,0,0,0-3.74-7.44,9.13,9.13,0,0,0-6.78-1,10.41,10.41,0,0,0-7.66,10V250.3a.77.77,0,1,1-1.54,0V229a.77.77,0,0,1,.75-.75.75.75,0,0,1,.79.75v6.51a10,10,0,0,1,7.26-7,10.76,10.76,0,0,1,8,1.14,8.4,8.4,0,0,1,4.13,6.47,9.92,9.92,0,0,1,7.57-7.61c5.59-1.41,12.59,2,12.59,9V250.3a.74.74,0,0,1-.79.79.71.71,0,0,1-.75-.79Z" transform="translate(-37.59 -215.28)"/><path class="cls-2" d="M614.09,239.51a1.25,1.25,0,0,1-1.37,1.46h-19.8a9.55,9.55,0,0,0,2.25,5.23,9.86,9.86,0,0,0,7.48,3.39,11.08,11.08,0,0,0,6.91-2.24c.79-.62,1.84.26,1,1.1a11.2,11.2,0,0,1-7.79,2.64,11.31,11.31,0,0,1-8.85-3.92,12.14,12.14,0,0,1-2.64-8.4,11.14,11.14,0,0,1,8.06-10.35,13.68,13.68,0,0,1,6.64,0C610.92,229.74,614,233.84,614.09,239.51Zm-21.21,0h19.71c-.09-4.84-2.68-8.49-7.08-9.68a11.58,11.58,0,0,0-5.64,0C595.47,231.06,592.92,235.11,592.88,239.51Z" transform="translate(-37.59 -215.28)"/><path class="cls-2" d="M640,237.71a8.26,8.26,0,0,0-10.52-8,10.57,10.57,0,0,0-7.7,10V250.3a.71.71,0,0,1-.75.79.74.74,0,0,1-.79-.79V229a.75.75,0,0,1,.79-.75.71.71,0,0,1,.75.79v6.08a10,10,0,0,1,7.22-6.87c5.85-1.49,12.54,2,12.54,9.42V250.3a.71.71,0,0,1-.75.79.74.74,0,0,1-.79-.79Z" transform="translate(-37.59 -215.28)"/><path class="cls-2" d="M658.09,228.38c1.14,0,1.14,1.41,0,1.41H652V243.3c0,3.17.53,6.42,4.62,6.42a6.2,6.2,0,0,0,2.64-.66c.92-.44,1.76.71.57,1.32a6.51,6.51,0,0,1-3.21.75c-4.93,0-6.12-3.74-6.12-7.83V229.79h-4.09c-1.19,0-1.19-1.41,0-1.41h4.09v-5.63a.75.75,0,0,1,1.5,0v5.63Z" transform="translate(-37.59 -215.28)"/><path class="cls-3" d="M677.8,251.4c-9.68,0-14-7.57-14-15.71s4.31-15.8,14-15.8,14.08,7.57,14.08,15.8S687.61,251.4,677.8,251.4Zm0-27.33c-6.43,0-8.67,6-8.67,11.62s2.33,11.61,8.67,11.61,8.71-6,8.71-11.61S684.22,224.07,677.8,224.07Z" transform="translate(-37.59 -215.28)"/><path class="cls-3" d="M710.8,250.78V239.07c0-2.94-.93-4.62-3.79-4.62a5,5,0,0,0-5.19,5.2v11.13H697V231h4.8v2a7.84,7.84,0,0,1,6-2.55c5.63,0,7.92,3.7,7.92,8.54v11.79Z" transform="translate(-37.59 -215.28)"/><path class="cls-3" d="M721.88,250.78V220.33h4.67v30.45Z" transform="translate(-37.59 -215.28)"/><path class="cls-3" d="M737.94,222.84a2.46,2.46,0,1,1-2.46-2.47A2.42,2.42,0,0,1,737.94,222.84Zm-4.84,27.94V230.93h4.76v19.85Z" transform="translate(-37.59 -215.28)"/><path class="cls-3" d="M758,250.78V239.07c0-2.94-.92-4.62-3.78-4.62a5,5,0,0,0-5.19,5.2v11.13h-4.8V231H749v2a7.81,7.81,0,0,1,6-2.55c5.63,0,7.92,3.7,7.92,8.54v11.79Z" transform="translate(-37.59 -215.28)"/><path class="cls-3" d="M773.14,241.71v.09a5.53,5.53,0,0,0,5.64,5.5c4,0,4.53-.3,8.09-1.8v4.22a24,24,0,0,1-8.27,1.59c-6.64,0-10.69-4.27-10.69-10.26,0-5.5,3.61-10.6,10.12-10.6s9.68,3.74,9.68,9.42v1.84Zm4.89-7.34c-2.73,0-4,1.49-4.75,3.82h9.59C782.69,235.69,781,234.37,778,234.37Z" transform="translate(-37.59 -215.28)"/><path class="cls-1" d="M328.62,268.06v6.56a2.38,2.38,0,0,0,2.62,2.71h4.19V276h-4.19c-.92,0-1.33-.42-1.33-1.39v-6.56c0-1,.41-1.39,1.33-1.39h4.19v-1.32h-4.19A2.38,2.38,0,0,0,328.62,268.06Z" transform="translate(-37.59 -215.28)"/><path class="cls-1" d="M349.1,269.29v-1.23a2.39,2.39,0,0,0-2.62-2.71h-5v12h1.29V272h3.27l1.83,5.33h1.32l-1.87-5.42C348.2,271.71,349.1,271.06,349.1,269.29Zm-1.29-1.23v1.23c0,1-.41,1.39-1.33,1.39h-3.7v-4h3.7C347.4,266.67,347.81,267.1,347.81,268.06Z" transform="translate(-37.59 -215.28)"/><polygon class="cls-1" points="317.57 62.05 324.39 62.05 324.39 60.73 318.86 60.73 318.86 56.72 324.39 56.72 324.39 55.4 318.86 55.4 318.86 51.39 324.39 51.39 324.39 50.07 317.57 50.07 317.57 62.05"/><path class="cls-1" d="M370.62,265.35l-3.46,12h1.31l1-3.28h4l1,3.28h1.31l-3.46-12Zm-.78,7.38,1.6-5.43,1.61,5.43Z" transform="translate(-37.59 -215.28)"/><polygon class="cls-1" points="343.32 51.39 346.48 51.39 346.48 62.05 347.77 62.05 347.77 51.39 350.93 51.39 350.93 50.07 343.32 50.07 343.32 51.39"/><polygon class="cls-1" points="356.99 62.05 363.8 62.05 363.8 60.73 358.28 60.73 358.28 56.72 363.8 56.72 363.8 55.4 358.28 55.4 358.28 51.39 363.8 51.39 363.8 50.07 356.99 50.07 356.99 62.05"/><path class="cls-1" d="M412.44,265.35h-5v12h5a2.38,2.38,0,0,0,2.62-2.71v-6.56A2.39,2.39,0,0,0,412.44,265.35Zm1.33,2.71v6.56c0,1-.41,1.39-1.33,1.39h-3.7v-9.34h3.7C413.36,266.67,413.77,267.1,413.77,268.06Z" transform="translate(-37.59 -215.28)"/><path class="cls-1" d="M434.24,265.35h-5v12h5a2.38,2.38,0,0,0,2.62-2.71v-1.23a2.19,2.19,0,0,0-.89-2.05,2.18,2.18,0,0,0,.89-2v-1.23A2.38,2.38,0,0,0,434.24,265.35Zm0,5.33h-3.69v-4h3.69c.92,0,1.33.43,1.33,1.39v1.23C435.57,270.25,435.16,270.68,434.24,270.68Zm0,5.33h-3.69v-4h3.69c.92,0,1.33.43,1.33,1.39v1.23C435.57,275.59,435.16,276,434.24,276Z" transform="translate(-37.59 -215.28)"/><polygon class="cls-1" points="408.74 55.53 405.81 50.07 404.37 50.07 408.1 56.95 408.1 62.05 409.38 62.05 409.38 56.95 413.11 50.07 411.67 50.07 408.74 55.53"/><path class="cls-1" d="M463.94,268.06v6.56a2.38,2.38,0,0,0,2.61,2.71h2.37a2.38,2.38,0,0,0,2.62-2.71v-3.94h-4.45V272h3.16v2.62c0,1-.41,1.39-1.33,1.39h-2.37c-.92,0-1.33-.42-1.33-1.39v-6.56c0-1,.41-1.39,1.33-1.39h5v-1.32h-5A2.38,2.38,0,0,0,463.94,268.06Z" transform="translate(-37.59 -215.28)"/><path class="cls-1" d="M483,265.35h-2.76a2.39,2.39,0,0,0-2.62,2.71v6.56a2.38,2.38,0,0,0,2.62,2.71H483a2.38,2.38,0,0,0,2.62-2.71v-6.56A2.38,2.38,0,0,0,483,265.35ZM483,276h-2.76c-.92,0-1.33-.42-1.33-1.39v-6.56c0-1,.41-1.39,1.33-1.39H483c.92,0,1.33.43,1.33,1.39v6.56C484.31,275.59,483.9,276,483,276Z" transform="translate(-37.59 -215.28)"/><polygon class="cls-1" points="457.48 60.1 454.51 50.07 453.2 50.07 456.66 62.05 458.3 62.05 461.76 50.07 460.45 50.07 457.48 60.1"/><polygon class="cls-1" points="466.95 62.05 473.76 62.05 473.76 60.73 468.24 60.73 468.24 56.72 473.76 56.72 473.76 55.4 468.24 55.4 468.24 51.39 473.76 51.39 473.76 50.07 466.95 50.07 466.95 62.05"/><path class="cls-1" d="M525,269.29v-1.23a2.39,2.39,0,0,0-2.62-2.71h-5v12h1.29V272H522l1.83,5.33h1.32l-1.87-5.42C524.12,271.71,525,271.06,525,269.29Zm-6.32-2.62h3.7c.92,0,1.33.43,1.33,1.39v1.23c0,1-.41,1.39-1.33,1.39h-3.7Z" transform="translate(-37.59 -215.28)"/><polygon class="cls-1" points="499.81 59.21 494.68 50.07 493.49 50.07 493.49 62.05 494.78 62.05 494.78 52.92 499.91 62.05 501.09 62.05 501.09 50.07 499.81 50.07 499.81 59.21"/><polygon class="cls-1" points="516.34 49.49 516.16 50.07 515.35 50.07 512.14 60.16 508.93 50.07 508.12 50.07 507.94 49.49 507.94 50.07 507.15 50.07 507.15 62.05 508.44 62.05 508.44 52.78 511.33 62.05 512.96 62.05 515.84 52.79 515.84 62.05 517.13 62.05 517.13 50.07 516.34 50.07 516.34 49.49"/><polygon class="cls-1" points="523.19 62.05 530 62.05 530 60.73 524.48 60.73 524.48 56.72 530 56.72 530 55.4 524.48 55.4 524.48 51.39 530 51.39 530 50.07 523.19 50.07 523.19 62.05"/><polygon class="cls-1" points="542.38 59.21 537.25 50.07 536.06 50.07 536.06 62.05 537.35 62.05 537.35 52.92 542.48 62.05 543.67 62.05 543.67 50.07 542.38 50.07 542.38 59.21"/><polygon class="cls-1" points="549.73 51.39 552.89 51.39 552.89 62.05 554.18 62.05 554.18 51.39 557.34 51.39 557.34 50.07 549.73 50.07 549.73 51.39"/><polygon class="cls-1" points="571.53 62.05 572.82 62.05 572.82 56.72 578.35 56.72 578.35 55.4 572.82 55.4 572.82 51.39 578.35 51.39 578.35 50.07 571.53 50.07 571.53 62.05"/><path class="cls-1" d="M627.38,265.35h-2.76a2.38,2.38,0,0,0-2.62,2.71v6.56a2.38,2.38,0,0,0,2.62,2.71h2.76a2.38,2.38,0,0,0,2.62-2.71v-6.56A2.39,2.39,0,0,0,627.38,265.35Zm0,10.66h-2.76c-.92,0-1.33-.42-1.33-1.39v-6.56c0-1,.41-1.39,1.33-1.39h2.76c.92,0,1.33.43,1.33,1.39v6.56C628.71,275.59,628.3,276,627.38,276Z" transform="translate(-37.59 -215.28)"/><path class="cls-1" d="M643.67,269.29v-1.23a2.39,2.39,0,0,0-2.62-2.71h-5v12h1.29V272h3.27l1.83,5.33h1.32l-1.87-5.42C642.76,271.71,643.67,271.06,643.67,269.29Zm-6.32-2.62h3.7c.92,0,1.33.43,1.33,1.39v1.23c0,1-.41,1.39-1.33,1.39h-3.7Z" transform="translate(-37.59 -215.28)"/><path class="cls-1" d="M657.86,268.06v6.56a2.38,2.38,0,0,0,2.62,2.71h2.37a2.38,2.38,0,0,0,2.62-2.71v-3.94H661V272h3.16v2.62c0,1-.41,1.39-1.33,1.39h-2.37c-.92,0-1.33-.42-1.33-1.39v-6.56c0-1,.41-1.39,1.33-1.39h5v-1.32h-5A2.39,2.39,0,0,0,657.86,268.06Z" transform="translate(-37.59 -215.28)"/><path class="cls-1" d="M676.91,265.35h-2.76a2.38,2.38,0,0,0-2.62,2.71v6.56a2.38,2.38,0,0,0,2.62,2.71h2.76a2.38,2.38,0,0,0,2.62-2.71v-6.56A2.39,2.39,0,0,0,676.91,265.35Zm-2.76,1.32h2.76c.92,0,1.33.43,1.33,1.39v6.56c0,1-.41,1.39-1.33,1.39h-2.76c-.92,0-1.33-.42-1.33-1.39v-6.56C672.82,267.1,673.23,266.67,674.15,266.67Z" transform="translate(-37.59 -215.28)"/><polygon class="cls-1" points="651.41 60.1 648.43 50.07 647.13 50.07 650.59 62.05 652.23 62.05 655.69 50.07 654.38 50.07 651.41 60.1"/><polygon class="cls-1" points="660.88 62.05 667.69 62.05 667.69 60.73 662.16 60.73 662.16 56.72 667.69 56.72 667.69 55.4 662.16 55.4 662.16 51.39 667.69 51.39 667.69 50.07 660.88 50.07 660.88 62.05"/><path class="cls-1" d="M719,269.29v-1.23a2.39,2.39,0,0,0-2.62-2.71h-5v12h1.29V272h3.27l1.83,5.33h1.32l-1.87-5.42C718,271.71,719,271.06,719,269.29Zm-1.29-1.23v1.23c0,1-.41,1.39-1.33,1.39h-3.7v-4h3.7C717.25,266.67,717.66,267.1,717.66,268.06Z" transform="translate(-37.59 -215.28)"/><polygon class="cls-1" points="693.73 59.21 688.6 50.07 687.42 50.07 687.42 62.05 688.71 62.05 688.71 52.92 693.84 62.05 695.02 62.05 695.02 50.07 693.73 50.07 693.73 59.21"/><polygon class="cls-1" points="710.27 49.49 710.09 50.07 709.28 50.07 706.07 60.16 702.86 50.07 702.05 50.07 701.87 49.49 701.87 50.07 701.08 50.07 701.08 62.05 702.37 62.05 702.37 52.78 705.25 62.05 706.88 62.05 709.77 52.78 709.77 62.05 711.06 62.05 711.06 50.07 710.27 50.07 710.27 49.49"/><polygon class="cls-1" points="717.12 62.05 723.93 62.05 723.93 60.73 718.41 60.73 718.41 56.72 723.93 56.72 723.93 55.4 718.41 55.4 718.41 51.39 723.93 51.39 723.93 50.07 717.12 50.07 717.12 62.05"/><polygon class="cls-1" points="736.31 59.21 731.18 50.07 729.99 50.07 729.99 62.05 731.28 62.05 731.28 52.92 736.41 62.05 737.6 62.05 737.6 50.07 736.31 50.07 736.31 59.21"/><polygon class="cls-1" points="743.66 50.07 743.66 51.39 746.82 51.39 746.82 62.05 748.11 62.05 748.11 51.39 751.26 51.39 751.26 50.07 743.66 50.07"/><line class="cls-4" x1="282.15" y1="70.58" x2="282.15"/><path class="cls-2" d="M151.17,244.27a16,16,0,0,1,4.09-5.09,18.78,18.78,0,0,1,6.18-3.35,23.9,23.9,0,0,1,7.7-1.19l55.75,0,12.33-17.16H169.14a52.18,52.18,0,0,0-15.9,2.32,39.37,39.37,0,0,0-9.53,4.42l6.86,21.44a12.9,12.9,0,0,1,.6-1.37" transform="translate(-37.59 -215.28)"/><path class="cls-2" d="M216.31,244.25v-.13H174.05l-12.25,15H196v9.74H171a25.14,25.14,0,0,1-7.81-1.16A19,19,0,0,1,157,264.4a16,16,0,0,1-4.15-5.36l-1.17-3.13L143.38,229l-.42-1.33-.59-1.89a12,12,0,0,0-4-5.7,11.58,11.58,0,0,0-7-2.25,11.22,11.22,0,0,0-6.76,2,15.34,15.34,0,0,0-4.5,5.17L109.55,244q-2.16,3.91-3.8,6.82c-1.08,1.95-2,3.7-2.86,5.28s-1.55,3-2.17,4.21S99.51,262.79,99,264c-.59-1.21-1.2-2.44-1.83-3.72s-1.35-2.68-2.17-4.22-1.78-3.29-2.86-5.27l-3.81-6.88-10.56-19a14.93,14.93,0,0,0-4.5-5.23,11.3,11.3,0,0,0-6.66-1.9,11.79,11.79,0,0,0-7,2.25A12.57,12.57,0,0,0,55,227l-17.45,59.8h20l6.59-24.15Q65.7,257,66.8,252.6t1.87-8.38c.53,1.13,1.07,2.31,1.63,3.51s1.22,2.53,2,4,1.59,3.06,2.51,4.87,2,3.85,3.16,6.12l8.89,17a18.05,18.05,0,0,0,2.62,4,11.91,11.91,0,0,0,2.71,2.26,8.51,8.51,0,0,0,3,1.05,21.67,21.67,0,0,0,3.45.25,21.89,21.89,0,0,0,3.46-.25,8.46,8.46,0,0,0,3-1.05,12,12,0,0,0,2.72-2.26,17.7,17.7,0,0,0,2.61-4l8.89-16.87q3.36-6.53,5.43-10.79t3.76-7.78c.52,2.74,1.15,5.55,1.87,8.43.51,2,1.11,4.29,1.78,6.78.14.57.29,1.14.46,1.71l0,.05a28.63,28.63,0,0,0,1.65,4.26,33.1,33.1,0,0,0,8.3,10.85,37.11,37.11,0,0,0,7.77,5.09c.79.4,1.6.77,2.43,1.12s1.56.68,2.39,1c1.31.47,2.66.86,4,1.21a49.23,49.23,0,0,0,11.86,1.4h45.32Z" transform="translate(-37.59 -215.28)"/></svg>