<svg xmlns="http://www.w3.org/2000/svg" xmlns:xlink="http://www.w3.org/1999/xlink" viewBox="0 0 586.6 693.11"><defs><style>.a{fill:none;}.b{clip-path:url(#a);}.c{fill:#fff;}</style><clipPath id="a" transform="translate(-0.08 -0.01)"><rect class="a" width="586.61" height="693.13"/></clipPath></defs><g class="b"><path class="c" d="M123.75,167.05c-1.62,90.49,71.78,165.32,164,167,93,1,169.43-72.68,170.6-164.55C456.3,77.07,382.45,1.18,293.44,0,198.93.84,123,75.62,123.77,167" transform="translate(-0.08 -0.01)"/><path class="c" d="M586.17,571.13V542.64c.17-10.71.14-42.25,0-70.4,2.83-16.72-6.56-45.73-20.93-64.76-15-27.05-61.14-51.3-103-54.13-17.34-.14-52.82-.38-79.24-.52-1.38,0-3.18,1.42-4,3.18-7.18,16.68-24.38,49.5-38.37,73.26-8.09,16.51-29.16,47.18-47.08,68.5-.83,2.55-3,2.62-4.91.13-2.76-3.07-8.05-9.67-11.78-14.71-19.72-25.15-50.15-81.86-67.94-126.66.14-2.07-2.21-3.73-5.25-3.73-19.51-.07-59.41,0-89.15.1-15.44-2.38-42.21,6.74-59.82,20.35C42.5,381.5,25,404,15.49,423.57,6.62,436.8-.29,467,.09,491.07.23,524,.36,591.37.36,641.56c0,2,.11,6.25.31,9.4-2,7.7,5,16.47,15.4,19.58a108.05,108.05,0,0,0,15.44,4c18.2,3,55.58,7.46,83.48,10.05,29.09,3.14,88.67,6.6,133.13,7.77,27.25,1.35,82.93.86,124.38-1.07,14.09-.45,42.9-2.21,64.31-3.87,17.34-1.07,52.61-4.63,78.79-8,10.57-.59,31.78-3.87,47.39-7.36,12.81,1.66,23.18-11.26,23.18-28.87V571.13" transform="translate(-0.08 -0.01)"/></g></svg>