<?xml version="1.0" encoding="utf-8"?>
<svg viewBox="0 0 1351.49 416.97" xmlns="http://www.w3.org/2000/svg">
  <defs>
    <style>.cls-1{fill:#373535;}.cls-2{fill:#1c76b9;}</style>
  </defs>
  <g id="Layer_2" data-name="Layer 2">
    <g id="Layer_1-2" data-name="Layer 1">
      <path class="cls-1" d="M643.56,179.36C874.32,115.6,1111-35.12,1351.49,73.73V15.59C1132.6-44.83,917.05,85.83,706.42,144c-139.49,38.54-293,62.33-439,43.23C175.51,175.23,73.79,133.37,0,71.69v79.44c63.41,37.4,136.67,62.58,204.57,71.47C350.53,241.7,504.07,217.91,643.56,179.36Z"/>
      <path class="cls-2" d="M 641.8 200.33 C 502.31 238.87 348.8 262.67 202.8 243.56 C 135.54 234.76 63 210 0 173.12 L 0 417.21 L 1351.39 417.21 L 1351.39 417 L 1351.49 417 L 1351.49 95.49 C 1110.39 -14.9 873.13 136.41 641.8 200.33 Z"/>
    </g>
  </g>
</svg>